<svg width="190" height="44" viewBox="0 0 190 44" fill="none" xmlns="http://www.w3.org/2000/svg">
<g clip-path="url(#clip0_56_25)">
<rect x="7" y="7" width="30" height="30" rx="15" fill="#00C2FF"/>
<path fill-rule="evenodd" clip-rule="evenodd" d="M24.7105 27.0132C23.5704 27.5452 22.2934 27.7106 21.0554 27.4866C19.8174 27.2625 18.6794 26.6601 17.7981 25.7623L32 19.1398C31.8411 18.4779 31.6159 17.8336 31.3279 17.2168C28.9619 12.1422 22.9304 9.94758 17.8548 12.3136C12.7792 14.6795 10.5866 20.711 12.9526 25.7856C15.3186 30.8602 21.3501 33.0539 26.4236 30.6879C27.702 30.0937 28.8419 29.2387 29.7701 28.1778C30.6983 27.1169 31.3944 25.8735 31.8135 24.5276H27.415C26.7925 25.6165 25.8471 26.4851 24.7095 27.0132M19.57 15.9882C18.4296 16.5196 17.482 17.3915 16.8579 18.4839C16.2337 19.5763 15.9636 20.8354 16.0849 22.0877L26.4824 17.2391C25.6011 16.3413 24.4631 15.7389 23.2251 15.5149C21.9871 15.2908 20.7101 15.4562 19.57 15.9882Z" fill="white"/>
<path d="M42.36 26.32L42.12 21.84L51.36 20.32C51.3067 19.7867 51.04 19.2533 50.56 18.72C50.08 18.1867 49.3333 17.92 48.32 17.92C47.2533 17.92 46.36 18.2667 45.64 18.96C44.9467 19.6533 44.5733 20.64 44.52 21.92L44.76 25.28C45.0267 26.5067 45.6267 27.36 46.56 27.84C47.52 28.32 48.5867 28.56 49.76 28.56C50.88 28.56 51.9467 28.4133 52.96 28.12C53.9733 27.8267 54.7867 27.5067 55.4 27.16C55.8267 27.4267 56.1867 27.8 56.48 28.28C56.7733 28.76 56.92 29.2667 56.92 29.8C56.92 30.68 56.5867 31.4133 55.92 32C55.28 32.56 54.3867 32.9733 53.24 33.24C52.0933 33.5067 50.7733 33.64 49.28 33.64C47.2 33.64 45.32 33.2533 43.64 32.48C41.9867 31.68 40.6667 30.4933 39.68 28.92C38.72 27.3467 38.24 25.3733 38.24 23C38.24 21.24 38.52 19.72 39.08 18.44C39.6667 17.16 40.44 16.12 41.4 15.32C42.36 14.52 43.4267 13.9333 44.6 13.56C45.8 13.16 47.0267 12.96 48.28 12.96C50.1733 12.96 51.8267 13.3333 53.24 14.08C54.6533 14.8 55.76 15.8 56.56 17.08C57.36 18.3333 57.76 19.7867 57.76 21.44C57.76 22.3467 57.5067 23.04 57 23.52C56.4933 24 55.7867 24.3067 54.88 24.44L42.36 26.32ZM76.3169 13.16C77.2502 13.16 78.0369 13.36 78.6769 13.76C79.3169 14.16 79.6369 14.8533 79.6369 15.84C79.6369 16.3467 79.5035 17.12 79.2369 18.16C78.9702 19.2 78.6235 20.3867 78.1969 21.72C77.7702 23.0267 77.2902 24.3733 76.7569 25.76C76.2502 27.12 75.7435 28.3867 75.2369 29.56C74.7302 30.7333 74.2769 31.68 73.8769 32.4C73.5302 32.6667 72.9835 32.8933 72.2369 33.08C71.5169 33.2933 70.7035 33.4 69.7969 33.4C68.7569 33.4 67.8502 33.2667 67.0769 33C66.3302 32.7333 65.8102 32.3067 65.5169 31.72C65.2235 31.16 64.8635 30.3733 64.4369 29.36C64.0369 28.3467 63.5969 27.2 63.1169 25.92C62.6635 24.6133 62.2102 23.28 61.7569 21.92C61.3035 20.5333 60.8769 19.2 60.4769 17.92C60.1035 16.64 59.8102 15.52 59.5969 14.56C59.9702 14.1867 60.4635 13.8667 61.0769 13.6C61.7169 13.3067 62.4102 13.16 63.1569 13.16C64.0902 13.16 64.8635 13.36 65.4769 13.76C66.0902 14.1333 66.5302 14.8533 66.7969 15.92L68.3569 22.04C68.5702 22.8133 68.7702 23.56 68.9569 24.28C69.1435 24.9733 69.3035 25.6 69.4369 26.16C69.5969 26.72 69.7169 27.1867 69.7969 27.56H69.9969C70.5035 25.5867 71.0369 23.4 71.5969 21C72.1569 18.5733 72.6635 16.2133 73.1169 13.92C74.0769 13.4133 75.1435 13.16 76.3169 13.16ZM102.598 23.28C102.598 25.4133 102.158 27.2533 101.278 28.8C100.425 30.3467 99.2118 31.5467 97.6384 32.4C96.0918 33.2267 94.2518 33.64 92.1184 33.64C90.0118 33.64 88.1718 33.2267 86.5984 32.4C85.0251 31.5733 83.7984 30.3867 82.9184 28.84C82.0651 27.2933 81.6384 25.44 81.6384 23.28C81.6384 21.1733 82.0784 19.3467 82.9584 17.8C83.8384 16.2533 85.0651 15.0667 86.6384 14.24C88.2118 13.3867 90.0384 12.96 92.1184 12.96C94.2251 12.96 96.0518 13.3867 97.5984 14.24C99.1718 15.0933 100.398 16.2933 101.278 17.84C102.158 19.3867 102.598 21.2 102.598 23.28ZM92.1184 18.28C91.0251 18.28 90.1584 18.72 89.5184 19.6C88.9051 20.4533 88.5984 21.68 88.5984 23.28C88.5984 24.9333 88.9051 26.1867 89.5184 27.04C90.1318 27.8933 90.9984 28.32 92.1184 28.32C93.2384 28.32 94.1051 27.8933 94.7184 27.04C95.3318 26.16 95.6384 24.9067 95.6384 23.28C95.6384 21.7067 95.3184 20.48 94.6784 19.6C94.0651 18.72 93.2118 18.28 92.1184 18.28ZM113.956 32.2C112.356 32.2 110.876 31.8933 109.516 31.28C108.156 30.6667 107.063 29.6667 106.236 28.28C105.436 26.8667 105.036 25.0133 105.036 22.72C105.036 20.5867 105.463 18.8 106.316 17.36C107.169 15.8933 108.369 14.8 109.916 14.08C111.489 13.3333 113.316 12.96 115.396 12.96C116.916 12.96 118.316 13.16 119.596 13.56C120.903 13.96 121.903 14.3867 122.596 14.84C123.129 15.1867 123.543 15.6 123.836 16.08C124.156 16.56 124.316 17.16 124.316 17.88V30.48H117.796V18.76C117.529 18.6267 117.236 18.52 116.916 18.44C116.596 18.3333 116.183 18.28 115.676 18.28C114.529 18.28 113.596 18.64 112.876 19.36C112.156 20.0533 111.796 21.1867 111.796 22.76C111.796 24.44 112.116 25.5867 112.756 26.2C113.423 26.8133 114.249 27.12 115.236 27.12C116.036 27.12 116.703 26.9867 117.236 26.72C117.769 26.4267 118.249 26.1067 118.676 25.76L118.876 31.08C118.263 31.4 117.556 31.6667 116.756 31.88C115.983 32.0933 115.049 32.2 113.956 32.2ZM117.916 32.56V28.96H124.316V32.72C124.316 34.5867 123.863 36.12 122.956 37.32C122.049 38.5467 120.823 39.4533 119.276 40.04C117.756 40.6267 116.049 40.92 114.156 40.92C112.743 40.92 111.476 40.8 110.356 40.56C109.263 40.3467 108.396 40.0267 107.756 39.6C106.796 38.96 106.316 38.0533 106.316 36.88C106.316 36.2667 106.436 35.7067 106.676 35.2C106.943 34.6933 107.236 34.32 107.556 34.08C108.329 34.5067 109.196 34.8667 110.156 35.16C111.143 35.4533 112.169 35.6 113.236 35.6C114.649 35.6 115.783 35.36 116.636 34.88C117.489 34.4 117.916 33.6267 117.916 32.56ZM128.733 22.44H135.533V32.96C135.24 33.04 134.813 33.12 134.253 33.2C133.72 33.28 133.133 33.32 132.493 33.32C131.186 33.32 130.226 33.0933 129.613 32.64C129.026 32.1867 128.733 31.3467 128.733 30.12V22.44ZM135.533 26H128.733V6.92C129.026 6.84 129.44 6.76 129.973 6.68C130.533 6.6 131.133 6.56 131.773 6.56C133.106 6.56 134.066 6.78667 134.653 7.24C135.24 7.66667 135.533 8.50667 135.533 9.76V26ZM148.22 28.68C148.674 28.68 149.167 28.64 149.7 28.56C150.26 28.4533 150.674 28.32 150.94 28.16V24.96L148.06 25.2C147.314 25.2533 146.7 25.4133 146.22 25.68C145.74 25.9467 145.5 26.3467 145.5 26.88C145.5 27.4133 145.7 27.8533 146.1 28.2C146.527 28.52 147.234 28.68 148.22 28.68ZM147.9 12.96C150.807 12.96 153.127 13.56 154.86 14.76C156.62 15.9333 157.5 17.7733 157.5 20.28V29.24C157.5 29.9333 157.3 30.5067 156.9 30.96C156.527 31.3867 156.074 31.76 155.54 32.08C154.687 32.5867 153.647 32.9733 152.42 33.24C151.194 33.5067 149.794 33.64 148.22 33.64C145.42 33.64 143.167 33.1067 141.46 32.04C139.78 30.9467 138.94 29.3067 138.94 27.12C138.94 25.28 139.487 23.8667 140.58 22.88C141.7 21.8933 143.394 21.28 145.66 21.04L150.9 20.48V20.2C150.9 19.4267 150.554 18.88 149.86 18.56C149.194 18.2133 148.22 18.04 146.94 18.04C145.954 18.04 144.967 18.1467 143.98 18.36C143.02 18.5733 142.154 18.84 141.38 19.16C141.034 18.92 140.74 18.56 140.5 18.08C140.26 17.5733 140.14 17.0533 140.14 16.52C140.14 15.24 140.82 14.3333 142.18 13.8C142.954 13.5067 143.86 13.2933 144.9 13.16C145.967 13.0267 146.967 12.96 147.9 12.96ZM174.098 27.76V16.16H180.858V28.72C180.858 29.3867 180.711 29.96 180.418 30.44C180.151 30.92 179.711 31.3467 179.098 31.72C178.325 32.2267 177.325 32.6667 176.098 33.04C174.871 33.44 173.471 33.64 171.898 33.64C169.578 33.64 167.591 33.2533 165.938 32.48C164.285 31.7067 163.018 30.56 162.138 29.04C161.258 27.4933 160.818 25.6 160.818 23.36C160.818 21.0133 161.271 19.08 162.178 17.56C163.085 16.0133 164.311 14.8667 165.858 14.12C167.431 13.3467 169.178 12.96 171.098 12.96C172.031 12.96 172.845 13.0533 173.538 13.24C174.231 13.4267 174.805 13.64 175.258 13.88V19.4C174.911 19.1333 174.458 18.88 173.898 18.64C173.365 18.4 172.751 18.28 172.058 18.28C171.151 18.28 170.365 18.4667 169.698 18.84C169.058 19.2133 168.565 19.7733 168.218 20.52C167.871 21.2667 167.698 22.2133 167.698 23.36C167.698 25.04 168.058 26.28 168.778 27.08C169.525 27.88 170.551 28.28 171.858 28.28C172.338 28.28 172.778 28.2267 173.178 28.12C173.578 27.9867 173.885 27.8667 174.098 27.76ZM180.858 17.44H174.058V6.92C174.351 6.84 174.765 6.76 175.298 6.68C175.858 6.6 176.458 6.56 177.098 6.56C178.431 6.56 179.391 6.78667 179.978 7.24C180.565 7.66667 180.858 8.50667 180.858 9.76V17.44Z" fill="white"/>
</g>
<defs>
<clipPath id="clip0_56_25">
<rect width="190" height="44" fill="white"/>
</clipPath>
</defs>
</svg>
