<svg width="50" height="50" viewBox="0 0 50 50" fill="none" xmlns="http://www.w3.org/2000/svg">
<rect x="3" y="3" width="43" height="43" rx="21.5" fill="#00C2FF"/>
<path fill-rule="evenodd" clip-rule="evenodd" d="M28.3854 32.4012C26.7512 33.1637 24.9209 33.4008 23.1464 33.0797C21.372 32.7585 19.7408 31.8951 18.4776 30.6082L38.8337 21.116C38.6059 20.1672 38.2832 19.2438 37.8703 18.3597C34.4791 11.0861 25.8339 7.94043 18.5589 11.3317C11.2839 14.7229 8.14113 23.3681 11.5324 30.6416C14.9236 37.9152 23.5688 41.0594 30.8409 37.6682C32.6732 36.8166 34.307 35.5911 35.6375 34.0704C36.968 32.5498 37.9656 30.7676 38.5663 28.8385H32.2619C31.3696 30.3992 30.0145 31.6442 28.3839 32.4012M21.0173 16.5987C19.3827 17.3603 18.0246 18.6101 17.1299 20.1758C16.2353 21.7416 15.8482 23.5463 16.022 25.3412L30.9251 18.3916C29.6619 17.1048 28.0307 16.2413 26.2563 15.9202C24.4818 15.5991 22.6514 15.8361 21.0173 16.5987Z" fill="white"/>
</svg>
