<?xml version="1.0" encoding="utf-8"?>
<!-- Uploaded to: SVG Repo, www.svgrepo.com, Generator: SVG Repo Mixer Tools -->
<svg fill="#15F1FF" width="60" height="60" viewBox="0 0 32 32" version="1.1" xmlns="http://www.w3.org/2000/svg">
  <title>id-card-vertical</title>
  <path d="M24 0.75h-16c-1.794 0.002-3.248 1.456-3.25 3.25v24c0.002 1.794 1.456 3.248 3.25 3.25h16c1.794-0.001 3.249-1.456 3.25-3.25v-24c-0.002-1.794-1.456-3.248-3.25-3.25h-0zM24.75 28c-0 0.414-0.336 0.75-0.75 0.75h-16c-0.414-0-0.75-0.336-0.75-0.75v-24c0.001-0.414 0.336-0.749 0.75-0.75h16c0.414 0 0.75 0.336 0.75 0.75v0zM16 10.044c0 0 0 0-0 0-1.731 0-3.135 1.403-3.135 3.135s1.403 3.135 3.135 3.135c1.731 0 3.135-1.403 3.135-3.135 0-0 0-0 0-0v0c-0.002-1.73-1.404-3.133-3.135-3.135h-0zM16 13.813c0 0 0 0-0 0-0.351 0-0.635-0.284-0.635-0.635s0.284-0.635 0.635-0.635c0.351 0 0.635 0.284 0.635 0.635 0 0 0 0 0 0v0c-0.001 0.35-0.284 0.634-0.635 0.635h-0zM12.051 21.928c0.081 0.019 0.174 0.029 0.269 0.029 0.596 0 1.094-0.418 1.218-0.976l0.002-0.008c0.258-1.139 1.262-1.977 2.462-1.977s2.204 0.839 2.459 1.962l0.003 0.017c0.127 0.565 0.624 0.982 1.219 0.982h0c0.096-0 0.189-0.011 0.278-0.031l-0.008 0.002c0.566-0.127 0.982-0.625 0.982-1.22 0-0.095-0.011-0.188-0.031-0.276l0.002 0.008c-0.512-2.272-2.513-3.944-4.904-3.944s-4.394 1.673-4.898 3.913l-0.006 0.034c-0.018 0.080-0.028 0.171-0.028 0.265 0 0.596 0.417 1.094 0.975 1.22l0.008 0.002zM22 24.777h-12c-0.69 0-1.25 0.56-1.25 1.25s0.56 1.25 1.25 1.25v0h12c0.69 0 1.25-0.56 1.25-1.25s-0.56-1.25-1.25-1.25v0zM14 7.25h4c0.69 0 1.25-0.56 1.25-1.25s-0.56-1.25-1.25-1.25v0h-4c-0.69 0-1.25 0.56-1.25 1.25s0.56 1.25 1.25 1.25v0z"/>
</svg>
