<svg width="110" height="25" viewBox="0 0 110 25" fill="none" xmlns="http://www.w3.org/2000/svg">
<g clip-path="url(#clip0_1_12)">
<path fill-rule="evenodd" clip-rule="evenodd" d="M13 2C11.9157 2 10.1039 2.34781 8.39886 2.735C6.65458 3.12875 4.89615 3.59469 3.86215 3.87687C3.42984 3.99612 3.04656 4.2148 2.75636 4.5078C2.46616 4.80079 2.2808 5.15622 2.22158 5.53325C1.28501 11.4093 3.45829 15.7642 6.09515 18.6451C7.21376 19.8772 8.54697 20.9624 10.0504 21.8647C10.657 22.223 11.2196 22.4973 11.6973 22.685C12.1373 22.8583 12.6103 23 13 23C13.3897 23 13.8611 22.8583 14.3027 22.685C14.8792 22.4521 15.4303 22.1776 15.9496 21.8647C17.453 20.9624 18.7862 19.8772 19.9049 18.6451C22.5417 15.7642 24.715 11.4093 23.7784 5.53325C23.7195 5.15599 23.5342 4.80028 23.244 4.50703C22.9538 4.21378 22.5704 3.9949 22.1378 3.87556C20.6367 3.46476 19.1241 3.08403 17.6011 2.73369C15.8961 2.34913 14.0843 2 13 2ZM13 8.5625C13.5567 8.56181 14.0957 8.72568 14.5215 9.02511C14.9474 9.32453 15.2326 9.74017 15.3267 10.1984C15.4208 10.6567 15.3177 11.1279 15.0357 11.5288C14.7536 11.9296 14.3108 12.2342 13.7857 12.3884L14.3907 15.0003C14.4127 15.0953 14.4093 15.1932 14.3807 15.287C14.3521 15.3807 14.2991 15.4681 14.2253 15.5427C14.1516 15.6173 14.059 15.6774 13.9542 15.7187C13.8494 15.7599 13.735 15.7813 13.6191 15.7812H12.3809C12.2651 15.7811 12.1509 15.7596 12.0463 15.7182C11.9417 15.6769 11.8493 15.6168 11.7757 15.5422C11.7022 15.4676 11.6493 15.3803 11.6208 15.2866C11.5923 15.193 11.5889 15.0952 11.6109 15.0003L12.2143 12.3884C11.6892 12.2342 11.2464 11.9296 10.9643 11.5288C10.6823 11.1279 10.5792 10.6567 10.6733 10.1984C10.7674 9.74017 11.0526 9.32453 11.4785 9.02511C11.9043 8.72568 12.4433 8.56181 13 8.5625Z" fill="white"/>
<path d="M33.3807 21.2557C32.0682 21.2557 30.9347 20.983 29.9801 20.4375C29.0313 19.8864 28.3011 19.108 27.7898 18.1023C27.2784 17.0909 27.0227 15.9006 27.0227 14.5312C27.0227 13.1847 27.2784 12.0028 27.7898 10.9858C28.3068 9.96307 29.0284 9.16761 29.9545 8.59943C30.8807 8.02557 31.9688 7.73864 33.2188 7.73864C34.0256 7.73864 34.7869 7.86932 35.5028 8.13068C36.2244 8.38636 36.8608 8.78409 37.4119 9.32386C37.9688 9.86364 38.4063 10.5511 38.7244 11.3864C39.0426 12.2159 39.2017 13.2045 39.2017 14.3523V15.2983H28.4716V13.2188H36.2443C36.2386 12.6278 36.1108 12.1023 35.8608 11.642C35.6108 11.1761 35.2614 10.8097 34.8125 10.5426C34.3693 10.2756 33.8523 10.142 33.2614 10.142C32.6307 10.142 32.0767 10.2955 31.5994 10.6023C31.1222 10.9034 30.75 11.3011 30.483 11.7955C30.2216 12.2841 30.0881 12.821 30.0824 13.4062V15.2216C30.0824 15.983 30.2216 16.6364 30.5 17.1818C30.7784 17.7216 31.1676 18.1364 31.6676 18.4261C32.1676 18.7102 32.7528 18.8523 33.4233 18.8523C33.8722 18.8523 34.2784 18.7898 34.642 18.6648C35.0057 18.5341 35.321 18.3438 35.5881 18.0938C35.8551 17.8438 36.0568 17.5341 36.1932 17.1648L39.0739 17.4886C38.892 18.25 38.5455 18.9148 38.0341 19.483C37.5284 20.0455 36.8807 20.483 36.0909 20.7955C35.3011 21.1023 34.3977 21.2557 33.3807 21.2557ZM47.522 21.2557C46.2152 21.2557 45.093 20.9688 44.1555 20.3949C43.2237 19.821 42.505 19.0284 41.9993 18.017C41.4993 17 41.2493 15.8295 41.2493 14.5057C41.2493 13.1761 41.505 12.0028 42.0163 10.9858C42.5277 9.96307 43.2493 9.16761 44.1811 8.59943C45.1186 8.02557 46.2266 7.73864 47.505 7.73864C48.5675 7.73864 49.5078 7.93466 50.326 8.3267C51.1499 8.71307 51.8061 9.26136 52.2947 9.97159C52.7834 10.6761 53.0618 11.5 53.13 12.4432H50.1811C50.0618 11.8125 49.7777 11.2869 49.3288 10.8665C48.8857 10.4403 48.2919 10.2273 47.5476 10.2273C46.9169 10.2273 46.3629 10.3977 45.8857 10.7386C45.4084 11.0739 45.0362 11.5568 44.7692 12.1875C44.5078 12.8182 44.3771 13.5739 44.3771 14.4545C44.3771 15.3466 44.5078 16.1136 44.7692 16.7557C45.0305 17.392 45.397 17.8835 45.8686 18.2301C46.3459 18.571 46.9055 18.7415 47.5476 18.7415C48.0021 18.7415 48.4084 18.6562 48.7663 18.4858C49.13 18.3097 49.4339 18.0568 49.6783 17.7273C49.9226 17.3977 50.0902 16.9972 50.1811 16.5256H53.13C53.0561 17.4517 52.7834 18.2727 52.3118 18.9886C51.8402 19.6989 51.1982 20.2557 50.3857 20.6591C49.5732 21.0568 48.6186 21.2557 47.522 21.2557ZM58.0412 21H54.6662L60.8111 3.54545H64.7145L70.8679 21H67.4929L62.831 7.125H62.6946L58.0412 21ZM58.152 14.1562H67.3565V16.696H58.152V14.1562ZM81.3743 15.4943V7.90909H84.4595V21H81.468V18.6733H81.3317C81.0362 19.4062 80.5504 20.0057 79.8743 20.4716C79.2038 20.9375 78.3771 21.1705 77.3942 21.1705C76.5362 21.1705 75.7777 20.9801 75.1186 20.5994C74.4652 20.2131 73.9538 19.6534 73.5845 18.9205C73.2152 18.1818 73.0305 17.2898 73.0305 16.2443V7.90909H76.1158V15.767C76.1158 16.5966 76.343 17.2557 76.7976 17.7443C77.2521 18.233 77.8487 18.4773 78.5874 18.4773C79.0419 18.4773 79.4822 18.3665 79.9084 18.1449C80.3345 17.9233 80.6839 17.5938 80.9567 17.1562C81.2351 16.7131 81.3743 16.1591 81.3743 15.4943ZM94.169 7.90909V10.2955H86.6435V7.90909H94.169ZM88.5014 4.77273H91.5866V17.0625C91.5866 17.4773 91.6491 17.7955 91.7741 18.017C91.9048 18.233 92.0753 18.3807 92.2855 18.4602C92.4957 18.5398 92.7287 18.5795 92.9844 18.5795C93.1776 18.5795 93.3537 18.5653 93.5128 18.5369C93.6776 18.5085 93.8026 18.483 93.8878 18.4602L94.4077 20.8722C94.2429 20.929 94.0071 20.9915 93.7003 21.0597C93.3991 21.1278 93.0298 21.1676 92.5923 21.179C91.8196 21.2017 91.1236 21.0852 90.5043 20.8295C89.8849 20.5682 89.3935 20.1648 89.0298 19.6193C88.6719 19.0739 88.4957 18.392 88.5014 17.5739V4.77273ZM100.116 13.3295V21H97.0305V3.54545H100.048V10.1335H100.201C100.508 9.39489 100.982 8.8125 101.624 8.38636C102.272 7.95455 103.096 7.73864 104.096 7.73864C105.005 7.73864 105.798 7.92898 106.474 8.30966C107.15 8.69034 107.673 9.24716 108.042 9.98011C108.417 10.7131 108.604 11.608 108.604 12.6648V21H105.519V13.142C105.519 12.2614 105.292 11.5767 104.837 11.0881C104.388 10.5937 103.758 10.3466 102.945 10.3466C102.4 10.3466 101.911 10.4659 101.479 10.7045C101.053 10.9375 100.718 11.2756 100.474 11.7188C100.235 12.1619 100.116 12.6989 100.116 13.3295Z" fill="white"/>
</g>
<defs>
<clipPath id="clip0_1_12">
<rect width="110" height="25" fill="white"/>
</clipPath>
</defs>
</svg>
