<svg width="110" height="28" viewBox="0 0 110 28" fill="none" xmlns="http://www.w3.org/2000/svg">
<g clip-path="url(#clip0_61_9)">
<path d="M36.6506 24.2983C35.0795 24.2983 33.7273 23.9801 32.5938 23.3438C31.4669 22.7008 30.5985 21.7926 29.9886 20.6193C29.3788 19.4394 29.0739 18.044 29.0739 16.4332C29.0739 14.8622 29.3788 13.4834 29.9886 12.2969C30.5985 11.1103 31.4569 10.1856 32.5639 9.52273C33.6776 8.85985 34.9834 8.52841 36.4815 8.52841C37.4891 8.52841 38.4271 8.69081 39.2955 9.01562C40.1705 9.33381 40.9328 9.81439 41.5824 10.4574C42.2386 11.1004 42.7491 11.9091 43.1136 12.8835C43.4782 13.8513 43.6605 14.9848 43.6605 16.2841V17.4474H30.7642V14.8224H39.6733C39.6733 14.2126 39.5407 13.6723 39.2756 13.2017C39.0104 12.7311 38.6425 12.3632 38.1719 12.098C37.7079 11.8262 37.1676 11.6903 36.5511 11.6903C35.9081 11.6903 35.3381 11.8395 34.8409 12.1378C34.3504 12.4295 33.9659 12.8239 33.6875 13.321C33.4091 13.8116 33.2666 14.3584 33.2599 14.9616V17.4574C33.2599 18.2131 33.3991 18.866 33.6776 19.4162C33.9626 19.9664 34.3636 20.3906 34.8807 20.6889C35.3977 20.9872 36.0109 21.1364 36.7202 21.1364C37.1908 21.1364 37.6217 21.0701 38.0128 20.9375C38.4039 20.8049 38.7386 20.6061 39.017 20.3409C39.2955 20.0758 39.5076 19.7509 39.6534 19.3665L43.571 19.625C43.3722 20.5663 42.9645 21.3883 42.348 22.0909C41.7382 22.7869 40.9493 23.3305 39.9815 23.7216C39.0204 24.1061 37.91 24.2983 36.6506 24.2983ZM53.3253 24.2983C51.7609 24.2983 50.4152 23.9669 49.2884 23.304C48.1681 22.6345 47.3063 21.7064 46.7031 20.5199C46.1065 19.3333 45.8082 17.9678 45.8082 16.4233C45.8082 14.8589 46.1098 13.4867 46.7131 12.3068C47.3229 11.1203 48.188 10.1955 49.3082 9.53267C50.4285 8.86316 51.7609 8.52841 53.3054 8.52841C54.6378 8.52841 55.8045 8.77036 56.8054 9.25426C57.8063 9.73816 58.5985 10.4176 59.1818 11.2926C59.7652 12.1676 60.0866 13.1951 60.1463 14.375H56.1491C56.0365 13.6127 55.7382 12.9995 55.2543 12.5355C54.777 12.0649 54.1506 11.8295 53.375 11.8295C52.7188 11.8295 52.1454 12.0085 51.6548 12.3665C51.1709 12.7178 50.7931 13.2315 50.5213 13.9077C50.2495 14.5838 50.1136 15.4025 50.1136 16.3636C50.1136 17.3381 50.2462 18.1667 50.5114 18.8494C50.7831 19.5322 51.1643 20.0526 51.6548 20.4105C52.1454 20.7685 52.7188 20.9474 53.375 20.9474C53.8589 20.9474 54.2931 20.848 54.6776 20.6491C55.0687 20.4503 55.3902 20.1619 55.642 19.7841C55.9006 19.3996 56.0696 18.9389 56.1491 18.402H60.1463C60.08 19.5687 59.7618 20.5961 59.1918 21.4844C58.6283 22.366 57.8494 23.0554 56.8551 23.5526C55.8608 24.0497 54.6842 24.2983 53.3253 24.2983ZM62.9379 24V3.63636H71.0913C72.5894 3.63636 73.8389 3.85843 74.8398 4.30256C75.8408 4.74669 76.5932 5.36316 77.0969 6.15199C77.6007 6.93419 77.8526 7.8357 77.8526 8.85653C77.8526 9.65199 77.6935 10.3513 77.3754 10.9545C77.0572 11.5511 76.6197 12.0417 76.0629 12.4261C75.5127 12.804 74.8829 13.0724 74.1737 13.2315V13.4304C74.9492 13.4635 75.6751 13.6823 76.3512 14.0866C77.034 14.491 77.5875 15.0578 78.0117 15.7869C78.436 16.5095 78.6481 17.3712 78.6481 18.3722C78.6481 19.4527 78.3796 20.4171 77.8427 21.2656C77.3124 22.1075 76.5269 22.7737 75.4862 23.2642C74.4454 23.7547 73.1628 24 71.6381 24H62.9379ZM67.2433 20.4801H70.7532C71.953 20.4801 72.828 20.2514 73.3782 19.794C73.9284 19.33 74.2035 18.7135 74.2035 17.9446C74.2035 17.3812 74.0676 16.884 73.7958 16.4531C73.524 16.0223 73.1362 15.6842 72.6325 15.4389C72.1353 15.1937 71.542 15.071 70.8526 15.071H67.2433V20.4801ZM67.2433 12.1577H70.435C71.025 12.1577 71.5487 12.0549 72.006 11.8494C72.4701 11.6373 72.8346 11.339 73.0998 10.9545C73.3716 10.5701 73.5075 10.1094 73.5075 9.57244C73.5075 8.83665 73.2456 8.24337 72.7219 7.79261C72.2049 7.34186 71.4691 7.11648 70.5146 7.11648H67.2433V12.1577ZM88.2706 24.2983C86.7261 24.2983 85.3904 23.9702 84.2635 23.3139C83.1432 22.651 82.2782 21.7296 81.6683 20.5497C81.0585 19.3632 80.7536 17.9877 80.7536 16.4233C80.7536 14.8456 81.0585 13.4669 81.6683 12.2869C82.2782 11.1004 83.1432 10.179 84.2635 9.52273C85.3904 8.85985 86.7261 8.52841 88.2706 8.52841C89.8151 8.52841 91.1475 8.85985 92.2678 9.52273C93.3946 10.179 94.263 11.1004 94.8729 12.2869C95.4827 13.4669 95.7876 14.8456 95.7876 16.4233C95.7876 17.9877 95.4827 19.3632 94.8729 20.5497C94.263 21.7296 93.3946 22.651 92.2678 23.3139C91.1475 23.9702 89.8151 24.2983 88.2706 24.2983ZM88.2905 21.017C88.9931 21.017 89.5798 20.8182 90.0504 20.4205C90.5211 20.0161 90.8757 19.4659 91.1143 18.7699C91.3596 18.0739 91.4822 17.2817 91.4822 16.3935C91.4822 15.5052 91.3596 14.7131 91.1143 14.017C90.8757 13.321 90.5211 12.7708 90.0504 12.3665C89.5798 11.9621 88.9931 11.7599 88.2905 11.7599C87.5812 11.7599 86.9846 11.9621 86.5007 12.3665C86.0234 12.7708 85.6622 13.321 85.4169 14.017C85.1783 14.7131 85.0589 15.5052 85.0589 16.3935C85.0589 17.2817 85.1783 18.0739 85.4169 18.7699C85.6622 19.4659 86.0234 20.0161 86.5007 20.4205C86.9846 20.8182 87.5812 21.017 88.2905 21.017ZM106.665 8.72727V11.9091H97.468V8.72727H106.665ZM99.5561 5.06818H103.792V19.3068C103.792 19.6979 103.852 20.0028 103.971 20.2216C104.09 20.4337 104.256 20.5829 104.468 20.669C104.687 20.7552 104.939 20.7983 105.224 20.7983C105.423 20.7983 105.621 20.7817 105.82 20.7486C106.019 20.7088 106.172 20.679 106.278 20.6591L106.944 23.8111C106.732 23.8774 106.433 23.9536 106.049 24.0398C105.665 24.1326 105.197 24.1889 104.647 24.2088C103.626 24.2486 102.731 24.1127 101.962 23.8011C101.2 23.4896 100.607 23.0057 100.183 22.3494C99.7583 21.6932 99.5495 20.8646 99.5561 19.8636V5.06818Z" fill="white"/>
<path fill-rule="evenodd" clip-rule="evenodd" d="M16.5417 4.08333C16.5417 4.85446 16.1227 5.52774 15.5 5.88796V6.16667H22.7917C24.5176 6.16667 25.9167 7.56578 25.9167 9.29167V21.7917C25.9167 23.5176 24.5176 24.9167 22.7917 24.9167H6.125C4.39911 24.9167 3 23.5176 3 21.7917V9.29167C3 7.56578 4.39911 6.16667 6.125 6.16667H13.4167V5.88796C12.794 5.52774 12.375 4.85446 12.375 4.08333C12.375 2.93274 13.3077 2 14.4583 2C15.609 2 16.5417 2.93274 16.5417 4.08333ZM6.125 8.25H13.4167H15.5H22.7917C23.367 8.25 23.8333 8.71637 23.8333 9.29167V21.7917C23.8333 22.367 23.367 22.8333 22.7917 22.8333H6.125C5.54971 22.8333 5.08333 22.367 5.08333 21.7917V9.29167C5.08333 8.71637 5.54971 8.25 6.125 8.25ZM17.5833 13.9792C17.5833 13.1162 18.2829 12.4167 19.1458 12.4167C20.0087 12.4167 20.7083 13.1162 20.7083 13.9792C20.7083 14.8421 20.0087 15.5417 19.1458 15.5417C18.2829 15.5417 17.5833 14.8421 17.5833 13.9792ZM19.1458 10.3333C17.1323 10.3333 15.5 11.9656 15.5 13.9792C15.5 15.9927 17.1323 17.625 19.1458 17.625C21.1594 17.625 22.7917 15.9927 22.7917 13.9792C22.7917 11.9656 21.1594 10.3333 19.1458 10.3333ZM9.77083 12.4167C8.90789 12.4167 8.20833 13.1162 8.20833 13.9792C8.20833 14.8421 8.90789 15.5417 9.77083 15.5417C10.6338 15.5417 11.3333 14.8421 11.3333 13.9792C11.3333 13.1162 10.6338 12.4167 9.77083 12.4167ZM6.125 13.9792C6.125 11.9656 7.75729 10.3333 9.77083 10.3333C11.7844 10.3333 13.4167 11.9656 13.4167 13.9792C13.4167 15.9927 11.7844 17.625 9.77083 17.625C7.75729 17.625 6.125 15.9927 6.125 13.9792ZM13.3067 19.2425C13.0494 18.7279 12.4237 18.5194 11.9092 18.7767C11.3946 19.034 11.186 19.6596 11.4433 20.1742C12.0422 21.372 13.3981 21.7917 14.4583 21.7917C15.5185 21.7917 16.8745 21.372 17.4733 20.1742C17.7306 19.6596 17.5221 19.034 17.0075 18.7767C16.4929 18.5194 15.8673 18.7279 15.61 19.2425C15.5145 19.4335 15.1342 19.7083 14.4583 19.7083C13.7825 19.7083 13.4022 19.4335 13.3067 19.2425Z" fill="white"/>
</g>
<defs>
<clipPath id="clip0_61_9">
<rect width="110" height="28" fill="white"/>
</clipPath>
</defs>
</svg>
