<svg width="110" height="25" viewBox="0 0 110 25" fill="none" xmlns="http://www.w3.org/2000/svg">
<g clip-path="url(#clip0_55_20)">
<path d="M34.176 21.24C32.288 21.24 30.784 20.728 29.664 19.704C28.544 18.68 27.96 17.16 27.912 15.144C27.912 15.032 27.912 14.888 27.912 14.712C27.912 14.536 27.912 14.4 27.912 14.304C27.96 13.04 28.24 11.96 28.752 11.064C29.28 10.152 30 9.464 30.912 9C31.84 8.52 32.92 8.28 34.152 8.28C35.56 8.28 36.72 8.56 37.632 9.12C38.56 9.68 39.256 10.44 39.72 11.4C40.184 12.36 40.416 13.456 40.416 14.688V15.264C40.416 15.44 40.352 15.584 40.224 15.696C40.112 15.808 39.976 15.864 39.816 15.864H32.136C32.136 15.88 32.136 15.904 32.136 15.936C32.136 15.968 32.136 16 32.136 16.032C32.152 16.496 32.232 16.92 32.376 17.304C32.52 17.688 32.744 17.992 33.048 18.216C33.352 18.44 33.72 18.552 34.152 18.552C34.472 18.552 34.736 18.504 34.944 18.408C35.168 18.296 35.352 18.176 35.496 18.048C35.64 17.904 35.752 17.784 35.832 17.688C35.976 17.528 36.088 17.432 36.168 17.4C36.264 17.352 36.408 17.328 36.6 17.328H39.576C39.736 17.328 39.864 17.376 39.96 17.472C40.072 17.552 40.12 17.672 40.104 17.832C40.088 18.104 39.952 18.432 39.696 18.816C39.44 19.2 39.064 19.584 38.568 19.968C38.088 20.336 37.48 20.64 36.744 20.88C36.008 21.12 35.152 21.24 34.176 21.24ZM32.136 13.488H36.192V13.44C36.192 12.928 36.112 12.48 35.952 12.096C35.808 11.712 35.576 11.416 35.256 11.208C34.952 11 34.584 10.896 34.152 10.896C33.72 10.896 33.352 11 33.048 11.208C32.76 11.416 32.536 11.712 32.376 12.096C32.216 12.48 32.136 12.928 32.136 13.44V13.488ZM48.402 21.24C47.218 21.24 46.17 21.024 45.258 20.592C44.346 20.16 43.618 19.536 43.074 18.72C42.546 17.888 42.258 16.896 42.21 15.744C42.194 15.488 42.186 15.168 42.186 14.784C42.186 14.384 42.194 14.056 42.21 13.8C42.258 12.632 42.546 11.64 43.074 10.824C43.602 9.992 44.322 9.36 45.234 8.928C46.162 8.496 47.218 8.28 48.402 8.28C49.506 8.28 50.45 8.44 51.234 8.76C52.018 9.064 52.658 9.448 53.154 9.912C53.65 10.376 54.018 10.856 54.258 11.352C54.514 11.832 54.65 12.256 54.666 12.624C54.682 12.784 54.626 12.928 54.498 13.056C54.37 13.168 54.226 13.224 54.066 13.224H51.018C50.842 13.224 50.706 13.184 50.61 13.104C50.514 13.024 50.426 12.904 50.346 12.744C50.154 12.248 49.906 11.896 49.602 11.688C49.314 11.48 48.938 11.376 48.474 11.376C47.834 11.376 47.338 11.584 46.986 12C46.65 12.416 46.466 13.056 46.434 13.92C46.418 14.56 46.418 15.128 46.434 15.624C46.466 16.504 46.65 17.144 46.986 17.544C47.338 17.944 47.834 18.144 48.474 18.144C48.97 18.144 49.362 18.04 49.65 17.832C49.938 17.624 50.17 17.272 50.346 16.776C50.426 16.616 50.514 16.496 50.61 16.416C50.706 16.336 50.842 16.296 51.018 16.296H54.066C54.226 16.296 54.37 16.36 54.498 16.488C54.626 16.6 54.682 16.736 54.666 16.896C54.65 17.168 54.57 17.488 54.426 17.856C54.282 18.208 54.058 18.584 53.754 18.984C53.45 19.384 53.05 19.76 52.554 20.112C52.074 20.448 51.49 20.72 50.802 20.928C50.114 21.136 49.314 21.24 48.402 21.24ZM63.9743 21.24C62.4543 21.24 61.1503 20.992 60.0623 20.496C58.9903 20 58.1503 19.272 57.5423 18.312C56.9503 17.352 56.6223 16.16 56.5583 14.736C56.5423 14.08 56.5343 13.376 56.5343 12.624C56.5343 11.872 56.5423 11.152 56.5583 10.464C56.6223 9.072 56.9583 7.896 57.5663 6.936C58.1743 5.96 59.0223 5.224 60.1103 4.728C61.1983 4.216 62.4863 3.96 63.9743 3.96C65.0303 3.96 66.0063 4.096 66.9023 4.368C67.7983 4.624 68.5823 5.008 69.2543 5.52C69.9263 6.016 70.4463 6.624 70.8143 7.344C71.1983 8.048 71.3983 8.848 71.4143 9.744C71.4303 9.888 71.3823 10.008 71.2703 10.104C71.1743 10.2 71.0543 10.248 70.9103 10.248H67.6703C67.4623 10.248 67.3023 10.208 67.1903 10.128C67.0783 10.032 66.9823 9.864 66.9023 9.624C66.6783 8.776 66.3103 8.2 65.7983 7.896C65.3023 7.576 64.6863 7.416 63.9503 7.416C63.0703 7.416 62.3743 7.664 61.8623 8.16C61.3503 8.64 61.0703 9.448 61.0223 10.584C60.9743 11.896 60.9743 13.24 61.0223 14.616C61.0703 15.752 61.3503 16.568 61.8623 17.064C62.3743 17.544 63.0703 17.784 63.9503 17.784C64.6863 17.784 65.3103 17.624 65.8223 17.304C66.3343 16.984 66.6943 16.408 66.9023 15.576C66.9663 15.336 67.0543 15.176 67.1663 15.096C67.2943 15 67.4623 14.952 67.6703 14.952H70.9103C71.0543 14.952 71.1743 15 71.2703 15.096C71.3823 15.192 71.4303 15.312 71.4143 15.456C71.3983 16.352 71.1983 17.16 70.8143 17.88C70.4463 18.584 69.9263 19.192 69.2543 19.704C68.5823 20.2 67.7983 20.584 66.9023 20.856C66.0063 21.112 65.0303 21.24 63.9743 21.24ZM74.5378 21C74.3618 21 74.2178 20.944 74.1058 20.832C73.9938 20.72 73.9378 20.576 73.9378 20.4V4.8C73.9378 4.624 73.9938 4.48 74.1058 4.368C74.2178 4.256 74.3618 4.2 74.5378 4.2H81.0658C83.1298 4.2 84.7538 4.68 85.9378 5.64C87.1378 6.584 87.7378 7.928 87.7378 9.672C87.7378 10.808 87.4578 11.768 86.8978 12.552C86.3538 13.336 85.6338 13.928 84.7378 14.328L88.0498 20.232C88.0978 20.328 88.1218 20.416 88.1218 20.496C88.1218 20.624 88.0658 20.744 87.9538 20.856C87.8578 20.952 87.7378 21 87.5938 21H84.4258C84.1218 21 83.8978 20.928 83.7538 20.784C83.6098 20.624 83.5058 20.48 83.4418 20.352L80.7058 15.072H78.2338V20.4C78.2338 20.576 78.1778 20.72 78.0658 20.832C77.9538 20.944 77.8098 21 77.6338 21H74.5378ZM78.2338 11.688H81.0178C81.7698 11.688 82.3298 11.504 82.6978 11.136C83.0818 10.768 83.2738 10.264 83.2738 9.624C83.2738 9 83.0898 8.496 82.7218 8.112C82.3698 7.728 81.8018 7.536 81.0178 7.536H78.2338V11.688ZM91.1316 21C90.9716 21 90.8276 20.944 90.6996 20.832C90.5876 20.72 90.5316 20.576 90.5316 20.4V4.8C90.5316 4.624 90.5876 4.48 90.6996 4.368C90.8276 4.256 90.9716 4.2 91.1316 4.2H93.7236C93.9796 4.2 94.1716 4.272 94.2996 4.416C94.4436 4.544 94.5316 4.648 94.5636 4.728L98.7876 12.312L103.012 4.728C103.06 4.648 103.14 4.544 103.252 4.416C103.38 4.272 103.58 4.2 103.852 4.2H106.42C106.596 4.2 106.74 4.256 106.852 4.368C106.98 4.48 107.044 4.624 107.044 4.8V20.4C107.044 20.576 106.98 20.72 106.852 20.832C106.74 20.944 106.596 21 106.42 21H103.564C103.388 21 103.236 20.944 103.108 20.832C102.996 20.72 102.94 20.576 102.94 20.4V11.4L100.228 16.416C100.164 16.56 100.068 16.688 99.9396 16.8C99.8116 16.912 99.6356 16.968 99.4116 16.968H98.1636C97.9396 16.968 97.7636 16.912 97.6356 16.8C97.5076 16.688 97.4036 16.56 97.3236 16.416L94.6116 11.4V20.4C94.6116 20.576 94.5556 20.72 94.4436 20.832C94.3316 20.944 94.1876 21 94.0116 21H91.1316Z" fill="white"/>
<path d="M26.5653 10.054C26.8133 9.577 27.0153 8.929 26.8003 8.268C26.5503 7.502 25.8613 6.993 24.7493 6.757L17.6973 5.257L10.4963 1.405C10.4183 1.363 9.71729 1 8.95129 1C8.38029 1 7.88829 1.198 7.52729 1.571C7.19029 1.92 6.98829 2.405 6.92429 3.015C6.85805 3.0108 6.79168 3.0088 6.72529 3.009C5.63629 3.009 5.07729 3.465 4.79929 3.848C4.36929 4.44 4.31529 5.241 4.63829 6.23L7.28729 14.348L7.53829 21.381C7.58229 22.603 8.25729 23.917 9.63629 23.918C9.90029 23.918 10.1736 23.868 10.4563 23.768C10.7843 24.324 11.3763 25 12.3203 25C12.9863 25 13.6443 24.643 14.2763 23.937L19.3863 18.24L26.1693 13.957C26.3163 13.863 27.6133 13.007 27.5673 11.728C27.5453 11.086 27.2053 10.526 26.5653 10.054ZM11.3963 21.166L9.06829 14.032L8.75229 5.185L17.0783 6.956L23.8493 10.578L18.2193 16.857L11.3963 21.166ZM24.3773 8.51C24.9223 8.626 25.0863 8.789 25.0973 8.823C25.1183 8.886 25.0803 9.019 25.0103 9.167L23.3873 8.299L24.3773 8.51ZM8.95129 2.792C9.22029 2.792 9.55829 2.937 9.65129 2.985L11.3893 3.914L8.69629 3.341C8.70929 3.018 8.77629 2.857 8.81629 2.815C8.82829 2.804 8.87829 2.792 8.95129 2.792ZM6.34129 5.674C6.14629 5.079 6.24829 4.901 6.24929 4.9C6.26829 4.874 6.41629 4.801 6.72529 4.801C6.80929 4.80167 6.88296 4.80533 6.94629 4.812L7.05529 7.862L6.34129 5.674ZM9.32929 21.316L9.30029 20.518L9.81429 22.092C9.75668 22.111 9.69685 22.1224 9.63629 22.126C9.49029 22.126 9.34329 21.626 9.32929 21.316ZM12.9433 22.74C12.5293 23.203 12.3233 23.208 12.3213 23.208C12.2633 23.208 12.1363 23.076 12.0203 22.891L13.8383 21.743L12.9433 22.74ZM25.2133 12.441L23.7683 13.354L25.4633 11.464C25.7123 11.638 25.7763 11.762 25.7773 11.793C25.7833 11.926 25.4903 12.261 25.2133 12.441Z" fill="white"/>
</g>
<defs>
<clipPath id="clip0_55_20">
<rect width="110" height="25" fill="white"/>
</clipPath>
</defs>
</svg>
