<svg width="100" height="24" viewBox="0 0 100 24" fill="none" xmlns="http://www.w3.org/2000/svg">
<g clip-path="url(#clip0_54_10)">
<path d="M28.018 19.418C26.9767 19.418 26.0673 19.2493 25.29 18.912C24.5273 18.56 23.8893 18.0907 23.376 17.504C22.8627 16.9173 22.4813 16.2573 22.232 15.524C21.9827 14.776 21.858 14.006 21.858 13.214V12.796C21.858 11.9747 21.99 11.19 22.254 10.442C22.518 9.67933 22.9067 9.00467 23.42 8.418C23.9333 7.83133 24.5713 7.36933 25.334 7.032C26.1113 6.69467 26.9987 6.526 27.996 6.526C29.0813 6.526 30.042 6.73867 30.878 7.164C31.714 7.57467 32.3813 8.154 32.88 8.902C33.3787 9.65 33.6573 10.508 33.716 11.476H30.262C30.2033 10.9333 29.9833 10.4787 29.602 10.112C29.2353 9.73067 28.7 9.54 27.996 9.54C27.4093 9.54 26.918 9.68667 26.522 9.98C26.1407 10.2733 25.8547 10.6767 25.664 11.19C25.4733 11.7033 25.378 12.312 25.378 13.016C25.378 13.6613 25.466 14.248 25.642 14.776C25.818 15.2893 26.0967 15.6927 26.478 15.986C26.874 16.2647 27.3873 16.404 28.018 16.404C28.4873 16.404 28.8833 16.3233 29.206 16.162C29.5433 15.986 29.8073 15.7513 29.998 15.458C30.2033 15.15 30.328 14.798 30.372 14.402H33.804C33.76 15.3993 33.4813 16.2793 32.968 17.042C32.4547 17.79 31.7727 18.3767 30.922 18.802C30.0713 19.2127 29.1033 19.418 28.018 19.418ZM36.2532 19V2.94H39.7732V19H36.2532ZM39.3332 19V16.008H46.3512V19H39.3332ZM39.3332 12.334V9.342H45.8452V12.334H39.3332ZM39.3332 5.932V2.94H46.1972V5.932H39.3332ZM51.3208 19L47.7128 6.944H51.3428L54.7308 19H51.3208ZM52.4208 19V16.074H55.9628V19H52.4208ZM53.7188 19L56.6448 6.944H60.0328L56.9088 19H53.7188ZM67.3585 19.418C66.3318 19.418 65.4225 19.242 64.6305 18.89C63.8531 18.538 63.2005 18.0687 62.6725 17.482C62.1591 16.8807 61.7631 16.2133 61.4845 15.48C61.2205 14.732 61.0885 13.9693 61.0885 13.192V12.752C61.0885 11.9453 61.2205 11.1753 61.4845 10.442C61.7631 9.694 62.1591 9.02667 62.6725 8.44C63.1858 7.85333 63.8238 7.39133 64.5865 7.054C65.3638 6.702 66.2438 6.526 67.2265 6.526C68.5171 6.526 69.6025 6.81933 70.4825 7.406C71.3771 7.978 72.0591 8.73333 72.5285 9.672C72.9978 10.596 73.2325 11.608 73.2325 12.708V13.896H62.5625V11.894H71.0985L69.9545 12.818C69.9545 12.0993 69.8518 11.4833 69.6465 10.97C69.4411 10.4567 69.1331 10.068 68.7225 9.804C68.3265 9.52533 67.8278 9.386 67.2265 9.386C66.6105 9.386 66.0898 9.52533 65.6645 9.804C65.2391 10.0827 64.9165 10.4933 64.6965 11.036C64.4765 11.564 64.3665 12.2167 64.3665 12.994C64.3665 13.7127 64.4691 14.3433 64.6745 14.886C64.8798 15.414 65.2025 15.8247 65.6425 16.118C66.0825 16.4113 66.6545 16.558 67.3585 16.558C68.0038 16.558 68.5318 16.4333 68.9425 16.184C69.3531 15.9347 69.6318 15.6267 69.7785 15.26H73.0125C72.8365 16.0667 72.4918 16.7853 71.9785 17.416C71.4651 18.0467 70.8198 18.538 70.0425 18.89C69.2651 19.242 68.3705 19.418 67.3585 19.418ZM75.565 19V6.944H78.359V12.114H78.161C78.161 10.882 78.315 9.85533 78.623 9.034C78.9457 8.21267 79.4297 7.59667 80.075 7.186C80.7203 6.77533 81.505 6.57 82.429 6.57H82.583C83.991 6.57 85.0617 7.032 85.795 7.956C86.543 8.86533 86.917 10.2513 86.917 12.114V19H83.397V11.916C83.397 11.2707 83.2063 10.7427 82.825 10.332C82.4437 9.92133 81.9303 9.716 81.285 9.716C80.625 9.716 80.0897 9.92867 79.679 10.354C79.283 10.7647 79.085 11.3073 79.085 11.982V19H75.565ZM95.3945 19.154C94.1772 19.154 93.1945 19.0073 92.4465 18.714C91.6985 18.406 91.1485 17.9 90.7965 17.196C90.4592 16.4773 90.2905 15.5093 90.2905 14.292V3.688H93.5685V14.424C93.5685 14.996 93.7152 15.436 94.0085 15.744C94.3165 16.0373 94.7492 16.184 95.3065 16.184H97.0885V19.154H95.3945ZM88.4645 9.518V6.944H97.0885V9.518H88.4645Z" fill="white"/>
<path fill-rule="evenodd" clip-rule="evenodd" d="M19.7063 7.51957C19.7063 8.41774 19.481 9.19832 19.0305 9.86132C18.5828 10.5229 17.9467 11.0719 17.1222 11.5082C16.188 11.9853 15.1927 12.3321 14.1642 12.5388C13.0167 12.7867 11.7432 12.9489 10.3435 13.0254C10.2922 13.4983 10.2673 13.9736 10.2691 14.4492C10.2691 14.9974 10.313 15.5337 10.4009 16.0578C10.4859 16.582 10.6417 17.0438 10.8684 17.4433C11.0936 17.8428 11.3996 18.1672 11.7864 18.4166C12.1731 18.6659 12.6661 18.7906 13.2654 18.7906C13.7145 18.7906 14.257 18.6971 14.8931 18.5101C15.5306 18.3231 16.2106 17.9923 16.9331 17.5177C17.1598 17.3689 17.3411 17.2443 17.4771 17.1437C17.6131 17.0455 17.7769 16.9934 17.9446 16.9949C18.1954 16.9949 18.364 17.126 18.4504 17.3881C18.5179 17.5621 18.5622 17.7443 18.5821 17.9299C18.194 18.282 17.7876 18.6132 17.3645 18.9223C16.8467 19.3022 16.2954 19.6344 15.7176 19.9147C15.1042 20.2136 14.4426 20.4693 13.7329 20.6818C13.0231 20.8943 12.2935 21.0006 11.5441 21.0006C10.3938 21.0006 9.45737 20.8136 8.73487 20.4396C8.05844 20.1028 7.47862 19.5997 7.04975 18.9776C6.6479 18.377 6.36778 17.7034 6.22525 16.9949C6.07823 16.2925 6.00277 15.577 6 14.8593C6 13.5121 6.21888 12.1889 6.65663 10.8898C7.09296 9.59215 7.71629 8.4319 8.52663 7.40907C9.33979 6.38482 10.3074 5.56103 11.4294 4.93769C12.5764 4.30738 13.867 3.98454 15.1758 4.00057C16.4493 4.00057 17.5225 4.26903 18.3951 4.80594C19.2692 5.34144 19.7063 6.24599 19.7063 7.51957ZM14.4639 5.49869C13.9893 5.49869 13.5395 5.66728 13.1145 6.00444C12.6895 6.34019 12.3028 6.79565 11.9543 7.37082C11.6058 7.94457 11.3061 8.59978 11.0554 9.33644C10.7996 10.0982 10.6119 10.8812 10.4944 11.6761C11.4931 11.5769 12.329 11.3899 13.0019 11.1151C13.6762 10.8388 14.2131 10.508 14.6126 10.1227C15.0121 9.73594 15.299 9.2989 15.4732 8.81157C15.6475 8.32424 15.7353 7.81919 15.7368 7.29644C15.7368 6.72269 15.6178 6.27928 15.3798 5.96619C15.2764 5.81987 15.1391 5.70086 14.9795 5.61942C14.82 5.53798 14.643 5.49654 14.4639 5.49869Z" fill="white"/>
</g>
<defs>
<clipPath id="clip0_54_10">
<rect width="100" height="24" fill="white"/>
</clipPath>
</defs>
</svg>
