<svg width="130" height="25" viewBox="0 0 130 25" fill="none" xmlns="http://www.w3.org/2000/svg">
<g clip-path="url(#clip0_54_15)">
<path d="M42.512 21.308C41.4267 21.308 40.466 21.0807 39.63 20.626C38.8087 20.1567 38.1633 19.504 37.694 18.668C37.2393 17.8173 37.012 16.82 37.012 15.676V15.412C37.012 14.268 37.2393 13.278 37.694 12.442C38.1487 11.5913 38.7867 10.9387 39.608 10.484C40.4293 10.0147 41.3827 9.78 42.468 9.78C43.5387 9.78 44.47 10.022 45.262 10.506C46.054 10.9753 46.67 11.6353 47.11 12.486C47.55 13.322 47.77 14.2973 47.77 15.412V16.358H39.828C39.8573 17.106 40.136 17.7147 40.664 18.184C41.192 18.6533 41.8373 18.888 42.6 18.888C43.3773 18.888 43.9493 18.7193 44.316 18.382C44.6827 18.0447 44.9613 17.6707 45.152 17.26L47.418 18.448C47.2127 18.8293 46.912 19.2473 46.516 19.702C46.1347 20.142 45.6213 20.5233 44.976 20.846C44.3307 21.154 43.5093 21.308 42.512 21.308ZM39.85 14.29H44.954C44.8953 13.6593 44.6387 13.1533 44.184 12.772C43.744 12.3907 43.1647 12.2 42.446 12.2C41.698 12.2 41.104 12.3907 40.664 12.772C40.224 13.1533 39.9527 13.6593 39.85 14.29ZM55.3633 21.308C54.3073 21.308 53.3466 21.088 52.4813 20.648C51.6306 20.208 50.9559 19.57 50.4573 18.734C49.9586 17.898 49.7093 16.886 49.7093 15.698V15.39C49.7093 14.202 49.9586 13.19 50.4573 12.354C50.9559 11.518 51.6306 10.88 52.4813 10.44C53.3466 10 54.3073 9.78 55.3633 9.78C56.4046 9.78 57.2993 9.96333 58.0473 10.33C58.7953 10.6967 59.3966 11.2027 59.8513 11.848C60.3206 12.4787 60.6286 13.1973 60.7753 14.004L58.0913 14.576C58.0326 14.136 57.9006 13.74 57.6953 13.388C57.4899 13.036 57.1966 12.7573 56.8153 12.552C56.4486 12.3467 55.9866 12.244 55.4293 12.244C54.8719 12.244 54.3659 12.3687 53.9113 12.618C53.4713 12.8527 53.1193 13.212 52.8553 13.696C52.6059 14.1653 52.4813 14.7447 52.4813 15.434V15.654C52.4813 16.3433 52.6059 16.93 52.8553 17.414C53.1193 17.8833 53.4713 18.2427 53.9113 18.492C54.3659 18.7267 54.8719 18.844 55.4293 18.844C56.2653 18.844 56.8959 18.6313 57.3213 18.206C57.7613 17.766 58.0399 17.194 58.1573 16.49L60.8413 17.128C60.6506 17.9053 60.3206 18.6167 59.8513 19.262C59.3966 19.8927 58.7953 20.3913 58.0473 20.758C57.2993 21.1247 56.4046 21.308 55.3633 21.308ZM63.0399 21V5.6H69.3759C70.3439 5.6 71.1946 5.798 71.9279 6.194C72.6759 6.57533 73.2552 7.118 73.6659 7.822C74.0912 8.526 74.3039 9.362 74.3039 10.33V10.638C74.3039 11.5913 74.0839 12.4273 73.6439 13.146C73.2186 13.85 72.6319 14.4 71.8839 14.796C71.1506 15.1773 70.3146 15.368 69.3759 15.368H65.9439V21H63.0399ZM65.9439 12.728H69.0899C69.7792 12.728 70.3366 12.5373 70.7619 12.156C71.1872 11.7747 71.3999 11.254 71.3999 10.594V10.374C71.3999 9.714 71.1872 9.19333 70.7619 8.812C70.3366 8.43067 69.7792 8.24 69.0899 8.24H65.9439V12.728ZM76.4052 21V10.088H79.1332V11.32H79.5292C79.6906 10.88 79.9546 10.5573 80.3212 10.352C80.7026 10.1467 81.1426 10.044 81.6412 10.044H82.9612V12.508H81.5972C80.8932 12.508 80.3139 12.6987 79.8592 13.08C79.4046 13.4467 79.1772 14.0187 79.1772 14.796V21H76.4052ZM89.9332 21.308C88.8478 21.308 87.8725 21.088 87.0072 20.648C86.1418 20.208 85.4598 19.57 84.9612 18.734C84.4625 17.898 84.2132 16.8933 84.2132 15.72V15.368C84.2132 14.1947 84.4625 13.19 84.9612 12.354C85.4598 11.518 86.1418 10.88 87.0072 10.44C87.8725 10 88.8478 9.78 89.9332 9.78C91.0185 9.78 91.9938 10 92.8592 10.44C93.7245 10.88 94.4065 11.518 94.9052 12.354C95.4038 13.19 95.6532 14.1947 95.6532 15.368V15.72C95.6532 16.8933 95.4038 17.898 94.9052 18.734C94.4065 19.57 93.7245 20.208 92.8592 20.648C91.9938 21.088 91.0185 21.308 89.9332 21.308ZM89.9332 18.844C90.7838 18.844 91.4878 18.5727 92.0452 18.03C92.6025 17.4727 92.8812 16.6807 92.8812 15.654V15.434C92.8812 14.4073 92.6025 13.6227 92.0452 13.08C91.5025 12.5227 90.7985 12.244 89.9332 12.244C89.0825 12.244 88.3785 12.5227 87.8212 13.08C87.2638 13.6227 86.9852 14.4073 86.9852 15.434V15.654C86.9852 16.6807 87.2638 17.4727 87.8212 18.03C88.3785 18.5727 89.0825 18.844 89.9332 18.844ZM99.6506 21V12.376H96.8786V10.088H99.6506V8.064C99.6506 7.316 99.8706 6.722 100.311 6.282C100.765 5.82733 101.352 5.6 102.071 5.6H104.711V7.888H103.039C102.628 7.888 102.423 8.108 102.423 8.548V10.088H106.823V12.376H102.423V21H99.6506ZM106.823 21V10.088H109.595V21H106.823ZM108.209 8.9C107.71 8.9 107.285 8.73867 106.933 8.416C106.595 8.09333 106.427 7.668 106.427 7.14C106.427 6.612 106.595 6.18667 106.933 5.864C107.285 5.54133 107.71 5.38 108.209 5.38C108.722 5.38 109.147 5.54133 109.485 5.864C109.822 6.18667 109.991 6.612 109.991 7.14C109.991 7.668 109.822 8.09333 109.485 8.416C109.147 8.73867 108.722 8.9 108.209 8.9ZM112.671 21V5.6H115.443V21H112.671ZM123.487 21.308C122.401 21.308 121.441 21.0807 120.605 20.626C119.783 20.1567 119.138 19.504 118.669 18.668C118.214 17.8173 117.987 16.82 117.987 15.676V15.412C117.987 14.268 118.214 13.278 118.669 12.442C119.123 11.5913 119.761 10.9387 120.583 10.484C121.404 10.0147 122.357 9.78 123.443 9.78C124.513 9.78 125.445 10.022 126.237 10.506C127.029 10.9753 127.645 11.6353 128.085 12.486C128.525 13.322 128.745 14.2973 128.745 15.412V16.358H120.803C120.832 17.106 121.111 17.7147 121.639 18.184C122.167 18.6533 122.812 18.888 123.575 18.888C124.352 18.888 124.924 18.7193 125.291 18.382C125.657 18.0447 125.936 17.6707 126.127 17.26L128.393 18.448C128.187 18.8293 127.887 19.2473 127.491 19.702C127.109 20.142 126.596 20.5233 125.951 20.846C125.305 21.154 124.484 21.308 123.487 21.308ZM120.825 14.29H125.929C125.87 13.6593 125.613 13.1533 125.159 12.772C124.719 12.3907 124.139 12.2 123.421 12.2C122.673 12.2 122.079 12.3907 121.639 12.772C121.199 13.1533 120.927 13.6593 120.825 14.29Z" fill="white"/>
<path d="M18.5 20.5H24M18.5 20.5C17.5943 20.5 17.1186 20.4881 16.751 20.3002C16.4059 20.1242 16.1254 19.8434 15.9498 19.4981C15.75 19.1067 15.75 18.5933 15.75 17.5667V12.4333C15.75 11.4067 15.75 10.8933 15.9498 10.501C16.1258 10.1554 16.4054 9.87583 16.751 9.69983C17.1433 9.5 17.6567 9.5 18.6833 9.5H29.3167C30.3433 9.5 30.8567 9.5 31.2481 9.69983C31.5937 9.87583 31.8742 10.1554 32.0502 10.501C32.25 10.8924 32.25 11.4057 32.25 12.4306V17.5694C32.25 18.5943 32.25 19.1067 32.0502 19.4981C31.8743 19.8435 31.5935 20.1243 31.2481 20.3002C30.8567 20.5 30.3442 20.5 29.3194 20.5H24M18.5 20.5C18.5 19.4871 19.7311 18.6667 21.25 18.6667C22.7689 18.6667 24 19.4871 24 20.5M29.5 16.8333H25.8333M29.5 14.0833H26.75M21.25 15.9167C20.7638 15.9167 20.2975 15.7235 19.9536 15.3797C19.6098 15.0359 19.4167 14.5696 19.4167 14.0833C19.4167 13.5971 19.6098 13.1308 19.9536 12.787C20.2975 12.4432 20.7638 12.25 21.25 12.25C21.7362 12.25 22.2025 12.4432 22.5464 12.787C22.8902 13.1308 23.0833 13.5971 23.0833 14.0833C23.0833 14.5696 22.8902 15.0359 22.5464 15.3797C22.2025 15.7235 21.7362 15.9167 21.25 15.9167Z" stroke="white" stroke-width="2" stroke-linecap="round" stroke-linejoin="round"/>
</g>
<defs>
<clipPath id="clip0_54_15">
<rect width="130" height="25" fill="white"/>
</clipPath>
</defs>
</svg>
