<svg width="100" height="25" viewBox="0 0 100 25" fill="none" xmlns="http://www.w3.org/2000/svg">
<path d="M27.18 18.32C26.3933 18.32 25.66 18.2133 24.98 18C24.3133 17.7733 23.7267 17.44 23.22 17C22.7267 16.56 22.3333 16.0067 22.04 15.34C21.76 14.6733 21.62 13.8933 21.62 13C21.62 12.12 21.76 11.3667 22.04 10.74C22.3333 10.1 22.7133 9.58 23.18 9.18C23.6467 8.76667 24.18 8.46667 24.78 8.28C25.38 8.08 25.9933 7.98 26.62 7.98C27.3267 7.98 27.9667 8.08667 28.54 8.3C29.1267 8.51333 29.6267 8.80667 30.04 9.18C30.4667 9.55333 30.7933 10 31.02 10.52C31.26 11.04 31.38 11.6067 31.38 12.22C31.38 12.6733 31.2533 13.02 31 13.26C30.7467 13.5 30.3933 13.6533 29.94 13.72L25 14.46C25.1467 14.9 25.4467 15.2333 25.9 15.46C26.3533 15.6733 26.8733 15.78 27.46 15.78C28.0067 15.78 28.52 15.7133 29 15.58C29.4933 15.4333 29.8933 15.2667 30.2 15.08C30.4133 15.2133 30.5933 15.4 30.74 15.64C30.8867 15.88 30.96 16.1333 30.96 16.4C30.96 17 30.68 17.4467 30.12 17.74C29.6933 17.9667 29.2133 18.12 28.68 18.2C28.1467 18.28 27.6467 18.32 27.18 18.32ZM26.62 10.46C26.3 10.46 26.02 10.5133 25.78 10.62C25.5533 10.7267 25.3667 10.8667 25.22 11.04C25.0733 11.2 24.96 11.3867 24.88 11.6C24.8133 11.8 24.7733 12.0067 24.76 12.22L28.18 11.66C28.14 11.3933 27.9933 11.1267 27.74 10.86C27.4867 10.5933 27.1133 10.46 26.62 10.46ZM38.4966 10.66C38.1632 10.66 37.8432 10.7133 37.5366 10.82C37.2432 10.9267 36.9832 11.0867 36.7566 11.3C36.5432 11.5 36.3699 11.7533 36.2366 12.06C36.1032 12.3667 36.0366 12.7267 36.0366 13.14C36.0366 13.9667 36.2699 14.5867 36.7366 15C37.2166 15.4133 37.7966 15.62 38.4766 15.62C38.8766 15.62 39.2232 15.5733 39.5166 15.48C39.8099 15.3867 40.0699 15.2867 40.2966 15.18C40.5632 15.3667 40.7632 15.5733 40.8966 15.8C41.0299 16.0133 41.0966 16.2733 41.0966 16.58C41.0966 17.1267 40.8366 17.5533 40.3166 17.86C39.7966 18.1533 39.0766 18.3 38.1566 18.3C37.3166 18.3 36.5566 18.18 35.8766 17.94C35.1966 17.6867 34.6099 17.34 34.1166 16.9C33.6366 16.4467 33.2632 15.9067 32.9966 15.28C32.7299 14.6533 32.5966 13.96 32.5966 13.2C32.5966 12.32 32.7366 11.5533 33.0166 10.9C33.3099 10.2333 33.7032 9.68667 34.1966 9.26C34.6899 8.83333 35.2566 8.51333 35.8966 8.3C36.5499 8.08667 37.2366 7.98 37.9566 7.98C38.9166 7.98 39.6566 8.15333 40.1766 8.5C40.6966 8.84667 40.9566 9.29333 40.9566 9.84C40.9566 10.0933 40.8966 10.3333 40.7766 10.56C40.6566 10.7733 40.5166 10.96 40.3566 11.12C40.1299 11.0133 39.8566 10.9133 39.5366 10.82C39.2166 10.7133 38.8699 10.66 38.4966 10.66ZM48.5055 8.84C48.6521 8.77333 48.8788 8.7 49.1855 8.62C49.5055 8.52667 49.8255 8.48 50.1455 8.48C50.7055 8.48 51.1721 8.56667 51.5455 8.74C51.9188 8.9 52.1455 9.14 52.2255 9.46C52.3721 10.0067 52.5055 10.52 52.6255 11C52.7588 11.4667 52.8855 11.92 53.0055 12.36C53.1255 12.7867 53.2388 13.2133 53.3455 13.64C53.4655 14.0667 53.5788 14.5133 53.6855 14.98H53.7855C53.9055 14.1667 54.0121 13.3933 54.1055 12.66C54.1988 11.9133 54.2855 11.1867 54.3655 10.48C54.4455 9.76 54.5255 9.05333 54.6055 8.36C54.6855 7.65333 54.7655 6.94 54.8455 6.22C55.3388 5.94 55.8655 5.8 56.4255 5.8C56.9188 5.8 57.3455 5.90667 57.7055 6.12C58.0655 6.33333 58.2455 6.69333 58.2455 7.2C58.2455 7.49333 58.2121 7.91333 58.1455 8.46C58.0921 8.99333 58.0121 9.59333 57.9055 10.26C57.8121 10.9267 57.6988 11.6267 57.5655 12.36C57.4321 13.0933 57.2921 13.7933 57.1455 14.46C56.9988 15.1267 56.8455 15.7333 56.6855 16.28C56.5388 16.8133 56.3988 17.2267 56.2655 17.52C56.0655 17.7067 55.7388 17.86 55.2855 17.98C54.8321 18.1 54.3655 18.16 53.8855 18.16C53.2588 18.16 52.7255 18.08 52.2855 17.92C51.8588 17.7467 51.5988 17.5067 51.5055 17.2C51.3321 16.6667 51.1455 16.0333 50.9455 15.3C50.7455 14.5667 50.5321 13.76 50.3055 12.88C50.1188 13.7467 49.9255 14.5933 49.7255 15.42C49.5255 16.2467 49.3455 16.9467 49.1855 17.52C48.9855 17.7067 48.6855 17.86 48.2855 17.98C47.8855 18.1 47.4455 18.16 46.9655 18.16C46.3655 18.16 45.8188 18.08 45.3255 17.92C44.8455 17.7467 44.5321 17.5067 44.3855 17.2C44.2655 16.96 44.1321 16.6067 43.9855 16.14C43.8521 15.66 43.7121 15.12 43.5655 14.52C43.4188 13.9067 43.2655 13.2467 43.1055 12.54C42.9588 11.8333 42.8188 11.1267 42.6855 10.42C42.5655 9.71333 42.4521 9.02667 42.3455 8.36C42.2388 7.68 42.1588 7.06 42.1055 6.5C42.2921 6.32667 42.5521 6.16667 42.8855 6.02C43.2188 5.87333 43.5788 5.8 43.9655 5.8C44.4721 5.8 44.8855 5.91333 45.2055 6.14C45.5388 6.35333 45.7455 6.72 45.8255 7.24C46.0388 8.6 46.2121 9.73333 46.3455 10.64C46.4921 11.5467 46.6055 12.2933 46.6855 12.88C46.7788 13.4533 46.8455 13.9 46.8855 14.22C46.9255 14.54 46.9655 14.7933 47.0055 14.98H47.1055C47.2255 14.4467 47.3388 13.9533 47.4455 13.5C47.5521 13.0467 47.6588 12.5933 47.7655 12.14C47.8855 11.6733 48.0055 11.18 48.1255 10.66C48.2455 10.1267 48.3721 9.52 48.5055 8.84ZM63.0181 17.98C62.8848 18.02 62.6715 18.06 62.3781 18.1C62.0981 18.14 61.8048 18.16 61.4981 18.16C61.2048 18.16 60.9381 18.14 60.6981 18.1C60.4715 18.06 60.2781 17.98 60.1181 17.86C59.9581 17.74 59.8315 17.58 59.7381 17.38C59.6581 17.1667 59.6181 16.8933 59.6181 16.56V10.56C59.6181 10.2533 59.6715 9.99333 59.7781 9.78C59.8981 9.55333 60.0648 9.35333 60.2781 9.18C60.4915 9.00667 60.7515 8.85333 61.0581 8.72C61.3781 8.57333 61.7181 8.44667 62.0781 8.34C62.4381 8.23333 62.8115 8.15333 63.1981 8.1C63.5848 8.03333 63.9715 8 64.3581 8C64.9981 8 65.5048 8.12667 65.8781 8.38C66.2515 8.62 66.4381 9.02 66.4381 9.58C66.4381 9.76667 66.4115 9.95333 66.3581 10.14C66.3048 10.3133 66.2381 10.4733 66.1581 10.62C65.8781 10.62 65.5915 10.6333 65.2981 10.66C65.0048 10.6867 64.7181 10.7267 64.4381 10.78C64.1581 10.8333 63.8915 10.8933 63.6381 10.96C63.3981 11.0133 63.1915 11.08 63.0181 11.16V17.98ZM67.7608 5.58C67.7608 5.07333 67.9274 4.64667 68.2608 4.3C68.6074 3.95333 69.0608 3.78 69.6208 3.78C70.1808 3.78 70.6274 3.95333 70.9608 4.3C71.3074 4.64667 71.4808 5.07333 71.4808 5.58C71.4808 6.08667 71.3074 6.51333 70.9608 6.86C70.6274 7.20667 70.1808 7.38 69.6208 7.38C69.0608 7.38 68.6074 7.20667 68.2608 6.86C67.9274 6.51333 67.7608 6.08667 67.7608 5.58ZM71.3208 17.98C71.1741 18.0067 70.9541 18.04 70.6608 18.08C70.3808 18.1333 70.0941 18.16 69.8008 18.16C69.5074 18.16 69.2408 18.14 69.0008 18.1C68.7741 18.06 68.5808 17.98 68.4208 17.86C68.2608 17.74 68.1341 17.58 68.0408 17.38C67.9608 17.1667 67.9208 16.8933 67.9208 16.56V8.42C68.0674 8.39333 68.2808 8.36 68.5608 8.32C68.8541 8.26667 69.1474 8.24 69.4408 8.24C69.7341 8.24 69.9941 8.26 70.2208 8.3C70.4608 8.34 70.6608 8.42 70.8208 8.54C70.9808 8.66 71.1008 8.82667 71.1808 9.04C71.2741 9.24 71.3208 9.50667 71.3208 9.84V17.98ZM76.8853 14.66C76.8853 15.0067 76.992 15.2533 77.2053 15.4C77.432 15.5467 77.7453 15.62 78.1453 15.62C78.3453 15.62 78.552 15.6067 78.7653 15.58C78.9786 15.54 79.1653 15.4933 79.3253 15.44C79.4453 15.5867 79.5453 15.7533 79.6253 15.94C79.7186 16.1133 79.7653 16.3267 79.7653 16.58C79.7653 17.0867 79.572 17.5 79.1853 17.82C78.812 18.14 78.1453 18.3 77.1853 18.3C76.012 18.3 75.1053 18.0333 74.4653 17.5C73.8386 16.9667 73.5253 16.1 73.5253 14.9V6.34C73.672 6.3 73.8786 6.26 74.1453 6.22C74.4253 6.16667 74.7186 6.14 75.0253 6.14C75.612 6.14 76.0653 6.24667 76.3853 6.46C76.7186 6.66 76.8853 7.09333 76.8853 7.76V9.04H79.5053C79.5853 9.18667 79.6586 9.37333 79.7253 9.6C79.8053 9.81333 79.8453 10.0533 79.8453 10.32C79.8453 10.7867 79.7386 11.1267 79.5253 11.34C79.3253 11.54 79.052 11.64 78.7053 11.64H76.8853V14.66ZM86.5159 18.32C85.7293 18.32 84.9959 18.2133 84.3159 18C83.6493 17.7733 83.0626 17.44 82.5559 17C82.0626 16.56 81.6693 16.0067 81.3759 15.34C81.0959 14.6733 80.9559 13.8933 80.9559 13C80.9559 12.12 81.0959 11.3667 81.3759 10.74C81.6693 10.1 82.0493 9.58 82.5159 9.18C82.9826 8.76667 83.5159 8.46667 84.1159 8.28C84.7159 8.08 85.3293 7.98 85.9559 7.98C86.6626 7.98 87.3026 8.08667 87.8759 8.3C88.4626 8.51333 88.9626 8.80667 89.3759 9.18C89.8026 9.55333 90.1293 10 90.3559 10.52C90.5959 11.04 90.7159 11.6067 90.7159 12.22C90.7159 12.6733 90.5893 13.02 90.3359 13.26C90.0826 13.5 89.7293 13.6533 89.2759 13.72L84.3359 14.46C84.4826 14.9 84.7826 15.2333 85.2359 15.46C85.6893 15.6733 86.2093 15.78 86.7959 15.78C87.3426 15.78 87.8559 15.7133 88.3359 15.58C88.8293 15.4333 89.2293 15.2667 89.5359 15.08C89.7493 15.2133 89.9293 15.4 90.0759 15.64C90.2226 15.88 90.2959 16.1333 90.2959 16.4C90.2959 17 90.0159 17.4467 89.4559 17.74C89.0293 17.9667 88.5493 18.12 88.0159 18.2C87.4826 18.28 86.9826 18.32 86.5159 18.32ZM85.9559 10.46C85.6359 10.46 85.3559 10.5133 85.1159 10.62C84.8893 10.7267 84.7026 10.8667 84.5559 11.04C84.4093 11.2 84.2959 11.3867 84.2159 11.6C84.1493 11.8 84.1093 12.0067 84.0959 12.22L87.5159 11.66C87.4759 11.3933 87.3293 11.1267 87.0759 10.86C86.8226 10.5933 86.4493 10.46 85.9559 10.46ZM95.7525 17.98C95.6192 18.02 95.4058 18.06 95.1125 18.1C94.8325 18.14 94.5392 18.16 94.2325 18.16C93.9392 18.16 93.6725 18.14 93.4325 18.1C93.2058 18.06 93.0125 17.98 92.8525 17.86C92.6925 17.74 92.5658 17.58 92.4725 17.38C92.3925 17.1667 92.3525 16.8933 92.3525 16.56V10.56C92.3525 10.2533 92.4058 9.99333 92.5125 9.78C92.6325 9.55333 92.7992 9.35333 93.0125 9.18C93.2258 9.00667 93.4858 8.85333 93.7925 8.72C94.1125 8.57333 94.4525 8.44667 94.8125 8.34C95.1725 8.23333 95.5458 8.15333 95.9325 8.1C96.3192 8.03333 96.7058 8 97.0925 8C97.7325 8 98.2392 8.12667 98.6125 8.38C98.9858 8.62 99.1725 9.02 99.1725 9.58C99.1725 9.76667 99.1458 9.95333 99.0925 10.14C99.0392 10.3133 98.9725 10.4733 98.8925 10.62C98.6125 10.62 98.3258 10.6333 98.0325 10.66C97.7392 10.6867 97.4525 10.7267 97.1725 10.78C96.8925 10.8333 96.6258 10.8933 96.3725 10.96C96.1325 11.0133 95.9258 11.08 95.7525 11.16V17.98Z" fill="white"/>
<path d="M20.2191 10.2407C20.2193 10.097 20.1912 9.95472 20.1362 9.82198C20.0812 9.68924 20.0005 9.56868 19.8987 9.46727L14.5323 4.10164C14.4308 4.00007 14.3102 3.91949 14.1775 3.86452C14.0448 3.80954 13.9025 3.78125 13.7589 3.78125C13.6153 3.78125 13.473 3.80954 13.3403 3.86452C13.2076 3.91949 13.087 4.00007 12.9855 4.10164L10.7409 6.34617L6.17374 8.05945C5.99401 8.12673 5.83514 8.24011 5.7131 8.38822C5.59105 8.53632 5.51012 8.71393 5.47843 8.9032L3.66281 19.797C3.65144 19.8642 3.65488 19.9331 3.67289 19.9989C3.6909 20.0647 3.72305 20.1257 3.76708 20.1778C3.81112 20.2298 3.86599 20.2717 3.92786 20.3004C3.98973 20.329 4.05711 20.3439 4.12531 20.3438C4.15147 20.3437 4.17759 20.3416 4.20343 20.3376L15.0972 18.522C15.2866 18.4904 15.4644 18.4095 15.6126 18.2875C15.7609 18.1654 15.8744 18.0065 15.9417 17.8266L17.6542 13.2595L19.8995 11.0141C20.0012 10.9127 20.0818 10.7921 20.1367 10.6594C20.1915 10.5266 20.2195 10.3843 20.2191 10.2407ZM15.0628 17.4977C15.0532 17.5234 15.037 17.546 15.0159 17.5634C14.9948 17.5808 14.9695 17.5924 14.9425 17.597L5.49171 19.172L9.62218 15.0407C10.0459 15.3021 10.5509 15.3987 11.0413 15.3123C11.5316 15.2258 11.9731 14.9623 12.2819 14.5717C12.5907 14.1812 12.7453 13.6908 12.7163 13.1938C12.6874 12.6967 12.4769 12.2276 12.1248 11.8756C11.7728 11.5235 11.3037 11.313 10.8066 11.284C10.3096 11.2551 9.81923 11.4097 9.42868 11.7185C9.03813 12.0273 8.7746 12.4688 8.68813 12.9591C8.60167 13.4494 8.69831 13.9544 8.95968 14.3782L4.82843 18.5102L6.40421 9.05711C6.40882 9.03035 6.42032 9.00525 6.43758 8.98429C6.45484 8.96333 6.47727 8.94723 6.50265 8.93758L10.8823 7.29695L16.7034 13.118L15.0628 17.4977ZM9.59406 13.3126C9.59406 13.0963 9.6582 12.8848 9.77839 12.7049C9.89857 12.5251 10.0694 12.3849 10.2692 12.3021C10.4691 12.2193 10.689 12.1976 10.9012 12.2398C11.1134 12.282 11.3082 12.3862 11.4612 12.5392C11.6142 12.6921 11.7183 12.887 11.7605 13.0992C11.8027 13.3114 11.7811 13.5313 11.6983 13.7311C11.6155 13.931 11.4753 14.1018 11.2955 14.222C11.1156 14.3422 10.9041 14.4063 10.6878 14.4063C10.3977 14.4063 10.1195 14.2911 9.91441 14.086C9.70929 13.8809 9.59406 13.6027 9.59406 13.3126ZM19.2355 10.3516L17.2503 12.3368L11.6628 6.75008L13.6487 4.76414C13.6633 4.74961 13.6805 4.73809 13.6995 4.73023C13.7184 4.72236 13.7388 4.71832 13.7593 4.71832C13.7798 4.71832 13.8002 4.72236 13.8191 4.73023C13.8381 4.73809 13.8553 4.74961 13.8698 4.76414L19.2355 10.1305C19.25 10.1451 19.2615 10.1623 19.2694 10.1813C19.2772 10.2002 19.2813 10.2206 19.2813 10.2411C19.2813 10.2616 19.2772 10.282 19.2694 10.3009C19.2615 10.3199 19.25 10.3371 19.2355 10.3516Z" fill="white"/>
</svg>
