<svg width="322" height="351" viewBox="0 0 322 351" fill="none" xmlns="http://www.w3.org/2000/svg">
<g clip-path="url(#clip0_65_22)">
<circle cx="60" cy="89" r="25" transform="rotate(-180 60 89)" fill="#CFCFCF"/>
<circle cx="155" cy="142" r="22" transform="rotate(-180 155 142)" fill="url(#paint0_linear_65_22)"/>
<circle cx="293" cy="248" r="21" transform="rotate(-180 293 248)" fill="url(#paint1_linear_65_22)"/>
<circle cx="307" cy="152" r="27" transform="rotate(-180 307 152)" fill="url(#paint2_linear_65_22)"/>
<circle cx="137.5" cy="260.5" r="16.5" transform="rotate(-180 137.5 260.5)" fill="url(#paint3_linear_65_22)"/>
<circle cx="177" cy="203" r="4" transform="rotate(-180 177 203)" fill="#10BAC9"/>
<circle cx="261" cy="60" r="4" transform="rotate(-180 261 60)" fill="#10BAC9"/>
</g>
<defs>
<linearGradient id="paint0_linear_65_22" x1="155" y1="120" x2="117" y2="159.333" gradientUnits="userSpaceOnUse">
<stop stop-color="#1D2B51"/>
<stop offset="0.620192" stop-color="#3B57A4"/>
<stop offset="0.730769" stop-color="#3E5CAD"/>
<stop offset="0.765705" stop-color="#4261B7"/>
<stop offset="0.945834" stop-color="#4261B7"/>
</linearGradient>
<linearGradient id="paint1_linear_65_22" x1="326.727" y1="274.091" x2="254.182" y2="227" gradientUnits="userSpaceOnUse">
<stop stop-color="#1D2B51"/>
<stop offset="0.593312" stop-color="#3B57A4"/>
</linearGradient>
<linearGradient id="paint2_linear_65_22" x1="261.804" y1="175.478" x2="352.783" y2="159.043" gradientUnits="userSpaceOnUse">
<stop offset="0.317231" stop-color="#0C8CAC"/>
<stop offset="1" stop-color="#053946"/>
</linearGradient>
<linearGradient id="paint3_linear_65_22" x1="109.88" y1="274.848" x2="165.478" y2="264.804" gradientUnits="userSpaceOnUse">
<stop offset="0.317231" stop-color="#0C8CAC"/>
<stop offset="1" stop-color="#053946"/>
</linearGradient>
<clipPath id="clip0_65_22">
<rect width="322" height="351" fill="white" transform="matrix(-1 0 0 -1 322 351)"/>
</clipPath>
</defs>
</svg>
